<?xml version="1.0" encoding="UTF-8"?>
<svg version="1.1" xmlns="http://www.w3.org/2000/svg" width="150" height="150">
<path d="M0 0 C49.5 0 99 0 150 0 C150 49.5 150 99 150 150 C100.5 150 51 150 0 150 C0 100.5 0 51 0 0 Z " fill="#FE0000" transform="translate(0,0)"/>
<path d="M0 0 C49.17 0 98.34 0 149 0 C142.24947526 7.8756122 142.24947526 7.8756122 139.74835205 10.38536072 C138.89469307 11.24541718 138.89469307 11.24541718 138.02378845 12.12284851 C137.42200272 12.72418106 136.82021698 13.32551361 136.20019531 13.94506836 C135.54904251 14.59957977 134.89788971 15.25409119 134.227005 15.92843628 C132.09666163 18.06819866 129.96264281 20.2042461 127.828125 22.33984375 C126.33926188 23.83192256 124.85047314 25.3240756 123.36175537 26.81629944 C120.25352293 29.9304981 117.14325228 33.04264469 114.03173828 36.15356445 C110.03613943 40.14906109 106.04749779 44.15142727 102.06053543 48.15553951 C98.99456506 51.23259112 95.9240984 54.30512484 92.85231781 57.3763752 C91.37864498 58.85123122 89.90660062 60.32771622 88.43619537 61.80583 C86.38955825 63.8622013 84.3367596 65.91221521 82.28222656 67.96069336 C81.6723439 68.57619553 81.06246124 69.19169769 80.43409729 69.82585144 C76.22832409 74 76.22832409 74 74 74 C74 74.99 74 75.98 74 77 C72.77610779 78.30030823 72.77610779 78.30030823 70.93530273 79.75610352 C66.79159444 83.23309028 62.95744273 86.93502587 59.14086914 90.76147461 C58.18462725 91.7193102 58.18462725 91.7193102 57.20906734 92.69649601 C55.85412766 94.05603566 54.50012987 95.41651455 53.14698982 96.77784538 C51.00196495 98.9357341 48.85374347 101.09039511 46.70469666 103.24427795 C42.1544683 107.80586998 37.6082147 112.37141061 33.0625 116.9375 C27.76920413 122.25438206 22.47429965 127.56964148 17.17519951 132.88073921 C15.05421491 135.00822665 12.93625057 137.13869041 10.81837463 139.26927185 C9.53018593 140.56108967 8.24185854 141.85276921 6.95336914 143.14428711 C6.06591759 144.03948814 6.06591759 144.03948814 5.16053772 144.95277405 C3.79253659 146.32095485 2.39907087 147.66360691 1 149 C0.67 149 0.34 149 0 149 C0 99.83 0 50.66 0 0 Z " fill="#00FD00" transform="translate(0,0)"/>
<path d="M0 0 C0 49.5 0 99 0 150 C-24.66666667 125.33333333 -49.33333333 100.66666667 -74 76 C-72.50936779 70.70795143 -69.07278253 67.66286721 -65.27124023 63.91479492 C-64.58005096 63.22156128 -63.88886169 62.52832764 -63.17672729 61.81408691 C-60.89453631 59.52889219 -58.60179603 57.25460915 -56.30859375 54.98046875 C-54.721428 53.39636059 -53.13485231 51.81166102 -51.54884338 50.22639465 C-48.2269625 46.90911382 -44.90023315 43.59680294 -41.56958008 40.28833008 C-37.28956882 36.03667002 -33.01834712 31.77631582 -28.75025845 27.51269054 C-25.47638153 24.24295885 -22.19968257 20.97606869 -18.92192268 17.71022987 C-17.3453059 16.13932882 -15.76916886 14.56794614 -14.19351006 12.99608421 C-11.99807676 10.80748464 -9.79929068 8.62231535 -7.59936523 6.43823242 C-6.94220016 5.78218521 -6.2850351 5.126138 -5.60795593 4.45021057 C-1.11468836 0 -1.11468836 0 0 0 Z " fill="#0000FD" transform="translate(150,0)"/>
<path d="M0 0 C47.52 0 95.04 0 144 0 C142.38926556 3.22146889 141.54029741 4.70894003 139.13998413 7.1005249 C138.55665817 7.68660019 137.97333221 8.27267548 137.37232971 8.87651062 C136.4153141 9.8227404 136.4153141 9.8227404 135.43896484 10.78808594 C134.76567642 11.46166641 134.092388 12.13524689 133.3986969 12.82923889 C131.17415197 15.05239154 128.94260871 17.26837793 126.7109375 19.484375 C125.16636338 21.02521865 123.62223049 22.56650472 122.07852173 24.10821533 C118.01571302 28.16339037 113.94693378 32.21252324 109.87689209 36.26043701 C105.72420894 40.39265611 101.57718656 44.53054757 97.4296875 48.66796875 C89.29199602 56.78421499 81.14798731 64.89409083 73 73 C70.16278536 71.70865685 68.10211294 70.35279223 65.8994751 68.15344238 C65.31339981 67.57300674 64.72732452 66.99257111 64.12348938 66.39454651 C63.49266953 65.75967819 62.86184967 65.12480988 62.21191406 64.47070312 C61.53833359 63.80062729 60.86475311 63.13055145 60.17076111 62.44017029 C57.94732646 60.22553349 55.73128134 58.0036667 53.515625 55.78125 C51.97463768 54.24160957 50.43335354 52.70226616 48.89178467 51.16320801 C45.66401234 47.93838404 42.43988528 44.7099702 39.21826172 41.47900391 C35.07978296 37.32911175 30.93236601 33.18828703 26.78219986 29.05008698 C23.59941544 25.87451254 20.42138898 22.69421106 17.24480438 19.51243591 C15.71678418 17.98307782 14.18726668 16.45521427 12.65625763 14.92884827 C10.52280943 12.80045316 8.39583432 10.66579774 6.27050781 8.52929688 C5.63159103 7.89442856 4.99267426 7.25956024 4.33439636 6.60545349 C0 2.22852992 0 2.22852992 0 0 Z " fill="#FCFC00" transform="translate(3,1)"/>
<path d="M0 0 C0.27036796 0.59568503 0.54073591 1.19137007 0.81929684 1.80510616 C1.99134687 3.98391407 3.14331807 5.3854995 4.89125061 7.11830139 C5.48154556 7.70845535 6.07184052 8.29860931 6.68002319 8.90664673 C7.32581329 9.54210419 7.97160339 10.17756165 8.63696289 10.83227539 C9.31839859 11.51079056 9.99983429 12.18930573 10.70191956 12.88838196 C12.18060413 14.35946116 13.66159457 15.82822539 15.14460945 17.29493904 C17.48950755 19.6143242 19.82811305 21.93988831 22.16514587 24.26719666 C27.12537861 29.20456739 32.09338183 34.13407405 37.0625 39.0625 C42.82333977 44.77620046 48.58098118 50.49304592 54.33025932 56.21838188 C56.63793721 58.51306235 58.95154195 60.8016531 61.26539612 63.09010315 C62.674702 64.49214631 64.08372916 65.89446971 65.49243164 67.29711914 C66.14024597 67.93460083 66.7880603 68.57208252 67.45550537 69.22888184 C68.0429805 69.81621597 68.63045563 70.40355011 69.23573303 71.00868225 C69.74841767 71.51692567 70.26110231 72.02516909 70.78932285 72.54881382 C72 74 72 74 73 77 C23.83 77 -25.34 77 -76 77 C-69.24947506 69.12438757 -69.24947506 69.12438757 -66.78631592 66.65260315 C-65.94527817 65.80516792 -65.94527817 65.80516792 -65.08724976 64.94061279 C-64.49481476 64.34863098 -63.90237976 63.75664917 -63.29199219 63.14672852 C-62.65059296 62.50197067 -62.00919373 61.85721283 -61.34835815 61.19291687 C-59.2504793 59.08562105 -57.14892728 56.9820385 -55.046875 54.87890625 C-53.58043217 53.40924764 -52.11406369 51.93951484 -50.64776611 50.4697113 C-47.58661182 47.40259134 -44.52342 44.33752297 -41.45898438 41.27368164 C-37.5239194 37.33871889 -33.59581282 33.39688676 -29.669384 29.45330906 C-26.64973676 26.42258055 -23.62559336 23.39637011 -20.6001358 20.37144279 C-19.14879162 18.91891546 -17.69907581 17.46475925 -16.25099945 16.00897408 C-14.23549497 13.98373518 -12.21383019 11.96485545 -10.19042969 9.94750977 C-9.58989777 9.34135834 -8.98936584 8.73520691 -8.37063599 8.11068726 C-4.22832426 4 -4.22832426 4 -2 4 C-2 3.01 -2 2.02 -2 1 C-1.34 0.67 -0.68 0.34 0 0 Z M-5.63017273 8.49464417 C-6.29047989 9.15697556 -6.95078705 9.81930695 -7.63110352 10.50170898 C-8.32375305 11.1926062 -9.01640259 11.88350342 -9.7300415 12.59533691 C-12.03219579 14.89306903 -14.33064849 17.19446467 -16.62890625 19.49609375 C-18.21916788 21.08568245 -19.809578 22.67512263 -21.40013123 24.26441956 C-24.73835617 27.60116703 -28.07475738 30.93972487 -31.40991211 34.27954102 C-35.696523 38.57184921 -39.98760628 42.85965375 -44.28006077 47.14611721 C-47.56653718 50.42898933 -50.85063938 53.71422818 -54.13401604 57.00020027 C-55.71581421 58.58266808 -57.29836257 60.16438638 -58.88165474 61.74535942 C-61.0896217 63.95080202 -63.29438305 66.15939875 -65.49829102 68.36889648 C-66.16062241 69.02920364 -66.8229538 69.6895108 -67.50535583 70.36982727 C-70.54382568 72.80744112 -70.54382568 72.80744112 -72 76 C-24.81 76 22.38 76 71 76 C66.90088082 71.21769429 62.81290822 66.66812396 58.36791992 62.23852539 C57.73466797 61.60352112 57.10141602 60.96851685 56.44897461 60.31427002 C54.37862847 58.23956192 52.30469346 56.16848613 50.23046875 54.09765625 C48.78397758 52.65049092 47.33763484 51.20317722 45.89143372 49.75572205 C42.87301051 46.73582998 39.85279922 43.71774087 36.83129883 40.70092773 C32.94943448 36.82479097 29.07211784 32.94414087 25.19610119 29.06215763 C22.21691365 26.07936867 19.23536357 23.09895051 16.25307655 20.11926079 C14.82132782 18.68818091 13.39032642 17.25635296 11.96007347 15.82377815 C9.97081948 13.83200123 7.97841734 11.84342959 5.98510742 9.85571289 C5.39033096 9.2589122 4.7955545 8.66211151 4.18275452 8.04722595 C-0.83080949 3.05986052 -0.64118737 3.52915337 -5.63017273 8.49464417 Z " fill="#870505" transform="translate(76,73)"/>
<path d="M0 0 C49.17 0 98.34 0 149 0 C147 2 147 2 144.50500298 2.23047829 C143.44494104 2.22126036 142.38487911 2.21204243 141.29269409 2.20254517 C139.47111282 2.19404793 139.47111282 2.19404793 137.61273193 2.18537903 C136.25988541 2.16885637 134.90704123 2.15214151 133.55419922 2.13525391 C132.13520913 2.12483199 130.7162123 2.11529598 129.29721069 2.10658264 C125.43783394 2.08036074 121.57866888 2.04169578 117.71942282 2.00085878 C113.68891014 1.96030507 109.65831593 1.93110842 105.62771606 1.90072632 C97.99201633 1.84143382 90.35644576 1.77187231 82.72086823 1.69865549 C74.02939377 1.61581124 65.33783745 1.54436288 56.64625525 1.47388959 C38.76404904 1.32864041 20.88199651 1.1690221 3 1 C7.37777083 6.1125098 11.87922164 11.00913882 16.68554688 15.71972656 C17.31240387 16.33869812 17.93926086 16.95766968 18.58511353 17.59539795 C19.93011369 18.92335244 21.27617458 20.25023332 22.62321472 21.57611847 C25.48594691 24.39646197 28.33909777 27.22641727 31.19290924 30.05578232 C36.4927055 35.30994985 41.79643337 40.56000238 47.11621094 45.79394531 C50.83081753 49.44934399 54.53325261 53.11668216 58.22779846 56.79235077 C59.63638575 58.18917029 61.04950405 59.58143568 62.46714783 60.96906281 C64.43955587 62.90069708 66.39609927 64.84713434 68.34960938 66.79785156 C68.9406546 67.36934937 69.53169983 67.94084717 70.14065552 68.52966309 C71.7376709 70.14312744 71.7376709 70.14312744 74 73 C73.64139557 75.17855453 73.64139557 75.17855453 73 77 C72.6407695 76.31545242 72.281539 75.63090485 71.91142273 74.9256134 C69.48140924 71.20624776 66.56743938 68.30418998 63.41723633 65.19018555 C62.40565098 64.1782386 62.40565098 64.1782386 61.37362957 63.14584827 C59.19773015 60.97143711 57.01505605 58.80397374 54.83203125 56.63671875 C53.48436929 55.29199873 52.13715798 53.94682693 50.79040527 52.60119629 C45.80322802 47.62448887 40.80733669 42.65652004 35.8125 37.6875 C24.654375 26.570625 13.49625 15.45375 2 4 C2 51.52 2 99.04 2 148 C1.34 148.33 0.68 148.66 0 149 C0 99.83 0 50.66 0 0 Z " fill="#388C00" transform="translate(0,0)"/>
<path d="M0 0 C0 49.5 0 99 0 150 C-0.66 149.67 -1.32 149.34 -2 149 C-2 101.48 -2 53.96 -2 5 C-25.1 28.1 -48.2 51.2 -72 75 C-72.33 74.01 -72.66 73.02 -73 72 C-63.63256133 62.6094435 -54.26246261 53.22155039 -44.88890934 43.83709717 C-40.53700023 39.479958 -36.18603087 35.12188878 -31.8371582 30.76171875 C-27.64427152 26.55800754 -23.44898323 22.35670732 -19.25198174 18.15710449 C-17.64705129 16.55031901 -16.04300464 14.94265027 -14.4398365 13.33410645 C-12.20315516 11.09022045 -9.96341936 8.84942818 -7.72290039 6.609375 C-6.71841354 5.59949524 -6.71841354 5.59949524 -5.69363403 4.56921387 C-1.11405216 0 -1.11405216 0 0 0 Z " fill="#070796" transform="translate(150,0)"/>
</svg>
